<svg width="34" height="34" viewBox="0 0 34 34" fill="none" xmlns="http://www.w3.org/2000/svg">
<path d="M24.2817 2H9.28174C5.1396 2 1.78174 5.35786 1.78174 9.5V24.5C1.78174 28.6421 5.1396 32 9.28174 32H24.2817C28.4239 32 31.7817 28.6421 31.7817 24.5V9.5C31.7817 5.35786 28.4239 2 24.2817 2Z" stroke="#28A745" stroke-width="3" stroke-linecap="round" stroke-linejoin="round"/>
<path d="M22.7818 16.0555C22.9669 17.3038 22.7537 18.5788 22.1724 19.699C21.5912 20.8192 20.6715 21.7276 19.5442 22.295C18.4169 22.8624 17.1395 23.0598 15.8935 22.8594C14.6475 22.6589 13.4964 22.0706 12.604 21.1782C11.7117 20.2858 11.1234 19.1348 10.9229 17.8888C10.7224 16.6428 10.9199 15.3653 11.4873 14.238C12.0547 13.1107 12.9631 12.1911 14.0833 11.6098C15.2035 11.0286 16.4784 10.8153 17.7268 11.0005C19.0002 11.1893 20.1791 11.7826 21.0893 12.6929C21.9996 13.6032 22.593 14.7821 22.7818 16.0555Z" stroke="#28A745" stroke-width="3" stroke-linecap="round" stroke-linejoin="round"/>
<path d="M25.0317 8.75H25.0467" stroke="#28A745" stroke-width="3" stroke-linecap="round" stroke-linejoin="round"/>
</svg>
