<svg width="34" height="32" viewBox="0 0 34 32" fill="none" xmlns="http://www.w3.org/2000/svg">
<path d="M23.3868 10.4736C25.8993 10.4736 28.309 11.4718 30.0857 13.2484C31.8623 15.0251 32.8605 17.4347 32.8605 19.9473V30.9999H26.5447V19.9473C26.5447 19.1098 26.212 18.3066 25.6197 17.7143C25.0275 17.1221 24.2243 16.7894 23.3868 16.7894C22.5492 16.7894 21.746 17.1221 21.1538 17.7143C20.5616 18.3066 20.2289 19.1098 20.2289 19.9473V30.9999H13.9131V19.9473C13.9131 17.4347 14.9112 15.0251 16.6879 13.2484C18.4645 11.4718 20.8742 10.4736 23.3868 10.4736Z" fill="#28A745" stroke="#28A745" stroke-width="2" stroke-linecap="round" stroke-linejoin="round"/>
<path d="M7.59753 12.0527H1.28174V31.0001H7.59753V12.0527Z" fill="#28A745" stroke="#28A745" stroke-width="2" stroke-linecap="round" stroke-linejoin="round"/>
<path d="M4.43963 7.31579C6.18369 7.31579 7.59753 5.90195 7.59753 4.15789C7.59753 2.41384 6.18369 1 4.43963 1C2.69558 1 1.28174 2.41384 1.28174 4.15789C1.28174 5.90195 2.69558 7.31579 4.43963 7.31579Z" fill="#28A745" stroke="#28A745" stroke-width="2" stroke-linecap="round" stroke-linejoin="round"/>
</svg>
