<svg width="46" height="32" viewBox="0 0 46 32" fill="none" xmlns="http://www.w3.org/2000/svg">
<path d="M43.6601 5.69599C43.4296 4.77505 42.9602 3.93125 42.2992 3.24982C41.6382 2.56838 40.8091 2.07345 39.8956 1.81501C36.5579 1 23.2074 1 23.2074 1C23.2074 1 9.85678 1 6.51913 1.89263C5.60564 2.15107 4.77652 2.646 4.11553 3.32744C3.45454 4.00887 2.98508 4.85267 2.75458 5.77361C2.14374 9.16085 1.84494 12.597 1.86195 16.0388C1.84018 19.5066 2.13899 22.9689 2.75458 26.3816C3.0087 27.274 3.48868 28.0857 4.14813 28.7383C4.80758 29.391 5.62421 29.8625 6.51913 30.1074C9.85678 31 23.2074 31 23.2074 31C23.2074 31 36.5579 31 39.8956 30.1074C40.8091 29.8489 41.6382 29.354 42.2992 28.6726C42.9602 27.9911 43.4296 27.1473 43.6601 26.2264C44.2663 22.8647 44.565 19.4547 44.5528 16.0388C44.5745 12.5711 44.2757 9.10873 43.6601 5.69599Z" fill="#28A745" stroke="#28A745" stroke-width="2" stroke-linecap="round" stroke-linejoin="round"/>
<path d="M18.8413 22.3842L29.9991 16.0388L18.8413 9.69336V22.3842Z" fill="white" stroke="#28A745" stroke-width="2" stroke-linecap="round" stroke-linejoin="round"/>
</svg>
